<svg width="30" height="31" viewBox="0 0 30 31" fill="none" xmlns="http://www.w3.org/2000/svg">
<g id="ph:arrow-right">
<path id="Vector" d="M25.9758 16.1176L17.5383 24.5551C17.3624 24.731 17.1238 24.8298 16.875 24.8298C16.6262 24.8298 16.3876 24.731 16.2117 24.5551C16.0358 24.3792 15.937 24.1406 15.937 23.8918C15.937 23.643 16.0358 23.4044 16.2117 23.2285L23.0496 16.3918H4.6875C4.43886 16.3918 4.2004 16.293 4.02459 16.1172C3.84877 15.9414 3.75 15.7029 3.75 15.4543C3.75 15.2056 3.84877 14.9672 4.02459 14.7914C4.2004 14.6156 4.43886 14.5168 4.6875 14.5168H23.0496L16.2117 7.68006C16.0358 7.50415 15.937 7.26556 15.937 7.01678C15.937 6.768 16.0358 6.52942 16.2117 6.3535C16.3876 6.17759 16.6262 6.07876 16.875 6.07876C17.1238 6.07876 17.3624 6.17759 17.5383 6.3535L25.9758 14.791C26.0629 14.8781 26.1321 14.9815 26.1793 15.0953C26.2265 15.2091 26.2507 15.3311 26.2507 15.4543C26.2507 15.5775 26.2265 15.6995 26.1793 15.8133C26.1321 15.9271 26.0629 16.0305 25.9758 16.1176Z" fill="#ECEFF1"/>
</g>
</svg>
