<svg width="30" height="31" viewBox="0 0 30 31" fill="none" xmlns="http://www.w3.org/2000/svg">
<g id="basil:key-solid">
<path id="Vector" fill-rule="evenodd" clip-rule="evenodd" d="M1.5625 15.5C1.56237 13.9024 2.09456 12.3502 3.07499 11.0887C4.05541 9.82728 5.42819 8.92844 6.97644 8.53421C8.5247 8.13998 10.1602 8.27283 11.6245 8.91178C13.0888 9.55074 14.2985 10.6594 15.0625 12.0625H26.25C27.4575 12.0625 28.4375 13.0425 28.4375 14.25V17.375C28.4375 17.6237 28.3387 17.8621 28.1629 18.0379C27.9871 18.2138 27.7486 18.3125 27.5 18.3125H24.6875V20.5C24.6875 20.7487 24.5887 20.9871 24.4129 21.1629C24.2371 21.3388 23.9986 21.4375 23.75 21.4375H20.625C20.3764 21.4375 20.1379 21.3388 19.9621 21.1629C19.7863 20.9871 19.6875 20.7487 19.6875 20.5V18.3125H15.3663C14.7175 19.8374 13.5619 21.0913 12.095 21.8621C10.628 22.6329 8.9398 22.8732 7.31604 22.5423C5.69228 22.2115 4.23268 21.3298 3.18423 20.0465C2.13579 18.7632 1.5629 17.1571 1.5625 15.5ZM8.75 13C8.08696 13 7.45107 13.2634 6.98223 13.7323C6.51339 14.2011 6.25 14.837 6.25 15.5C6.25 16.1631 6.51339 16.7989 6.98223 17.2678C7.45107 17.7366 8.08696 18 8.75 18C9.41304 18 10.0489 17.7366 10.5178 17.2678C10.9866 16.7989 11.25 16.1631 11.25 15.5C11.25 14.837 10.9866 14.2011 10.5178 13.7323C10.0489 13.2634 9.41304 13 8.75 13Z" fill="#263238"/>
</g>
</svg>
