<svg width="20" height="21" viewBox="0 0 20 21" fill="none" xmlns="http://www.w3.org/2000/svg">
<g id="ep:top">
<path id="Vector" d="M11.1765 4.96371V16.6896C11.177 16.7671 11.1621 16.844 11.1327 16.9157C11.1033 16.9875 11.0601 17.0527 11.0054 17.1077C10.9508 17.1627 10.8858 17.2063 10.8142 17.2361C10.7426 17.2659 10.6658 17.2812 10.5883 17.2812C10.5107 17.2812 10.434 17.2659 10.3624 17.2361C10.2908 17.2063 10.2258 17.1627 10.1711 17.1077C10.1165 17.0527 10.0732 16.9875 10.0438 16.9157C10.0145 16.844 9.99959 16.7671 10 16.6896V4.96371L5.71063 9.52134C5.65772 9.57912 5.59337 9.62525 5.52168 9.65681C5.44998 9.68837 5.3725 9.70467 5.29416 9.70467C5.21583 9.70467 5.13835 9.68837 5.06665 9.65681C4.99495 9.62525 4.9306 9.57912 4.8777 9.52134C4.767 9.40086 4.70557 9.24321 4.70557 9.07959C4.70557 8.91597 4.767 8.75831 4.8777 8.63783L10.1718 3.01195C10.2247 2.95417 10.2891 2.90804 10.3608 2.87648C10.4325 2.84491 10.5099 2.82861 10.5883 2.82861C10.6666 2.82861 10.7441 2.84491 10.8158 2.87648C10.8875 2.90804 10.9518 2.95417 11.0047 3.01195L16.2989 8.63783C16.4092 8.75825 16.4705 8.91566 16.4705 9.079C16.4705 9.24234 16.4092 9.39976 16.2989 9.52017C16.246 9.57795 16.1816 9.62409 16.1099 9.65565C16.0382 9.68721 15.9607 9.70351 15.8824 9.70351C15.8041 9.70351 15.7266 9.68721 15.6549 9.65565C15.5832 9.62409 15.5188 9.57795 15.4659 9.52017L11.1765 4.9649V4.96371Z" fill="#263238"/>
</g>
</svg>
