<svg width="35" height="35" viewBox="0 0 35 35" fill="none" xmlns="http://www.w3.org/2000/svg">
<g id="icons8:cancel">
<path id="Vector" d="M17.5 3.28125C9.66 3.28125 3.28125 9.66 3.28125 17.5C3.28125 25.34 9.66 31.7188 17.5 31.7188C25.34 31.7188 31.7188 25.34 31.7188 17.5C31.7188 9.66 25.34 3.28125 17.5 3.28125ZM17.5 5.46875C24.1577 5.46875 29.5312 10.8423 29.5312 17.5C29.5312 24.1577 24.1577 29.5312 17.5 29.5312C10.8423 29.5312 5.46875 24.1577 5.46875 17.5C5.46875 10.8423 10.8423 5.46875 17.5 5.46875ZM13.3656 11.7906L11.7906 13.3656L15.9294 17.5L11.7928 21.6344L13.3678 23.2094L17.5 19.0717L21.6344 23.2061L23.2094 21.6344L19.0717 17.5L23.2061 13.3656L21.6344 11.7906L17.5 15.9294L13.3656 11.7928V11.7906Z" fill="#9E9E9E"/>
</g>
</svg>
