<svg width="30" height="31" viewBox="0 0 30 31" fill="none" xmlns="http://www.w3.org/2000/svg">
<g id="ion:briefcase" clip-path="url(#clip0_105_131)">
<path id="Vector" d="M29.0625 11.2668C29.0614 10.2726 28.666 9.31942 27.963 8.61639C27.2599 7.91337 26.3067 7.51793 25.3125 7.51685H22.5V6.57935C22.4992 5.83366 22.2027 5.11874 21.6754 4.59146C21.1481 4.06419 20.4332 3.76762 19.6875 3.76685H10.3125C9.56682 3.76762 8.8519 4.06419 8.32462 4.59146C7.79734 5.11874 7.50078 5.83366 7.5 6.57935V7.51685H4.6875C3.69327 7.51793 2.74007 7.91337 2.03705 8.61639C1.33402 9.31942 0.938586 10.2726 0.9375 11.2668V14.0793H29.0625V11.2668ZM20.625 7.51685H9.375V6.57935C9.375 6.33071 9.47377 6.09225 9.64959 5.91643C9.8254 5.74062 10.0639 5.64185 10.3125 5.64185H19.6875C19.9361 5.64185 20.1746 5.74062 20.3504 5.91643C20.5262 6.09225 20.625 6.33071 20.625 6.57935V7.51685ZM19.6875 16.4231C19.6875 16.7961 19.5393 17.1537 19.2756 17.4175C19.0119 17.6812 18.6542 17.8293 18.2812 17.8293H11.7188C11.3458 17.8293 10.9881 17.6812 10.7244 17.4175C10.4607 17.1537 10.3125 16.7961 10.3125 16.4231V16.1887C10.3125 16.1266 10.2878 16.0669 10.2439 16.023C10.1999 15.979 10.1403 15.9543 10.0781 15.9543H0.9375V24.3918C0.9375 25.3864 1.33259 26.3402 2.03585 27.0435C2.73911 27.7468 3.69294 28.1418 4.6875 28.1418H25.3125C26.3071 28.1418 27.2609 27.7468 27.9641 27.0435C28.6674 26.3402 29.0625 25.3864 29.0625 24.3918V15.9543H19.9219C19.8597 15.9543 19.8001 15.979 19.7561 16.023C19.7122 16.0669 19.6875 16.1266 19.6875 16.1887V16.4231Z" fill="#263238"/>
</g>
<defs>
<clipPath id="clip0_105_131">
<rect width="30" height="30" fill="white" transform="translate(0 0.954346)"/>
</clipPath>
</defs>
</svg>
