<svg width="30" height="31" viewBox="0 0 30 31" fill="none" xmlns="http://www.w3.org/2000/svg">
<g id="mdi:location">
<path id="Vector" d="M15 14.8293C14.1712 14.8293 13.3763 14.5 12.7903 13.914C12.2042 13.3279 11.875 12.5331 11.875 11.7043C11.875 10.8755 12.2042 10.0806 12.7903 9.49458C13.3763 8.90852 14.1712 8.57928 15 8.57928C15.8288 8.57928 16.6237 8.90852 17.2097 9.49458C17.7958 10.0806 18.125 10.8755 18.125 11.7043C18.125 12.1147 18.0442 12.521 17.8871 12.9002C17.7301 13.2793 17.4999 13.6238 17.2097 13.914C16.9195 14.2042 16.575 14.4344 16.1959 14.5914C15.8167 14.7485 15.4104 14.8293 15 14.8293ZM15 2.95428C12.6794 2.95428 10.4538 3.87616 8.81282 5.5171C7.17187 7.15804 6.25 9.38364 6.25 11.7043C6.25 18.2668 15 27.9543 15 27.9543C15 27.9543 23.75 18.2668 23.75 11.7043C23.75 9.38364 22.8281 7.15804 21.1872 5.5171C19.5462 3.87616 17.3206 2.95428 15 2.95428Z" fill="#9E9E9E"/>
</g>
</svg>
