<svg width="30" height="31" viewBox="0 0 30 31" fill="none" xmlns="http://www.w3.org/2000/svg">
<g id="mdi:user">
<path id="Vector" d="M15 5.5C16.3261 5.5 17.5979 6.02678 18.5355 6.96447C19.4732 7.90215 20 9.17392 20 10.5C20 11.8261 19.4732 13.0979 18.5355 14.0355C17.5979 14.9732 16.3261 15.5 15 15.5C13.6739 15.5 12.4021 14.9732 11.4645 14.0355C10.5268 13.0979 10 11.8261 10 10.5C10 9.17392 10.5268 7.90215 11.4645 6.96447C12.4021 6.02678 13.6739 5.5 15 5.5ZM15 18C20.525 18 25 20.2375 25 23V25.5H5V23C5 20.2375 9.475 18 15 18Z" fill="#263238"/>
</g>
</svg>
