<svg width="31" height="31" viewBox="0 0 31 31" fill="none" xmlns="http://www.w3.org/2000/svg">
<g id="ri:vip-diamond-fill" clip-path="url(#clip0_76_326)">
<path id="Vector" d="M6.34752 4.2081H24.165C24.3623 4.20807 24.5567 4.25472 24.7325 4.34423C24.9082 4.43373 25.0603 4.56356 25.1763 4.7231L29.9538 11.2931C30.0387 11.41 30.0805 11.5527 30.0721 11.697C30.0637 11.8413 30.0055 11.9781 29.9075 12.0843L15.715 27.4593C15.6565 27.5228 15.5855 27.5734 15.5064 27.608C15.4273 27.6427 15.342 27.6606 15.2556 27.6606C15.1693 27.6606 15.084 27.6427 15.0049 27.608C14.9258 27.5734 14.8548 27.5228 14.7963 27.4593L0.603767 12.0856C0.505772 11.9794 0.447608 11.8425 0.439176 11.6982C0.430743 11.554 0.472563 11.4113 0.557517 11.2943L5.33627 4.72435C5.45224 4.56481 5.60432 4.43498 5.78008 4.34548C5.95584 4.25597 6.15028 4.20807 6.34752 4.2081Z" fill="black"/>
</g>
<defs>
<clipPath id="clip0_76_326">
<rect width="30" height="30" fill="white" transform="translate(0.25 0.454346)"/>
</clipPath>
</defs>
</svg>
