<svg width="31" height="31" viewBox="0 0 31 31" fill="none" xmlns="http://www.w3.org/2000/svg">
<g id="simple-line-icons:plus" clip-path="url(#clip0_81_674)">
<path id="Vector" d="M15.5 0.454346C7.21578 0.454346 0.5 7.17013 0.5 15.4543C0.5 23.739 7.21578 30.4543 15.5 30.4543C23.7847 30.4543 30.5 23.739 30.5 15.4543C30.5 7.17013 23.7847 0.454346 15.5 0.454346ZM15.5 28.6089C8.26297 28.6089 2.375 22.6914 2.375 15.4543C2.375 8.21726 8.26297 2.32929 15.5 2.32929C22.737 2.32929 28.625 8.21728 28.625 15.4543C28.625 22.6913 22.737 28.6089 15.5 28.6089ZM22.0625 14.5168H16.4375V8.89185C16.4375 8.37435 16.0175 7.95435 15.5 7.95435C14.9825 7.95435 14.5625 8.37435 14.5625 8.89185V14.5168H8.9375C8.42 14.5168 8 14.9368 8 15.4543C8 15.9718 8.42 16.3918 8.9375 16.3918H14.5625V22.0168C14.5625 22.5343 14.9825 22.9543 15.5 22.9543C16.0175 22.9543 16.4375 22.5343 16.4375 22.0168V16.3918H22.0625C22.58 16.3918 23 15.9718 23 15.4543C23 14.9368 22.58 14.5168 22.0625 14.5168Z" fill="#9E9E9E"/>
</g>
<defs>
<clipPath id="clip0_81_674">
<rect width="30" height="30" fill="white" transform="translate(0.5 0.454346)"/>
</clipPath>
</defs>
</svg>
