<svg width="30" height="31" viewBox="0 0 30 31" fill="none" xmlns="http://www.w3.org/2000/svg">
<g id="solar:phone-bold">
<path id="Vector" d="M20.695 16.5868L20.1262 17.1531C20.1262 17.1531 18.7725 18.4981 15.0787 14.8256C11.385 11.1531 12.7387 9.80807 12.7387 9.80807L13.0962 9.45057C13.98 8.57307 14.0637 7.16307 13.2925 6.13307L11.7175 4.02932C10.7625 2.75432 8.91872 2.58557 7.82497 3.67307L5.86247 5.62307C5.32122 6.16307 4.95872 6.86057 5.00247 7.63557C5.11497 9.61932 6.01247 13.8856 11.0175 18.8631C16.3262 24.1406 21.3075 24.3506 23.3437 24.1606C23.9887 24.1006 24.5487 23.7731 25 23.3231L26.775 21.5581C27.975 20.3668 27.6375 18.3231 26.1025 17.4893L23.715 16.1906C22.7075 15.6431 21.4825 15.8043 20.695 16.5868Z" fill="#9E9E9E"/>
</g>
</svg>
