<svg width="31" height="31" viewBox="0 0 31 31" fill="none" xmlns="http://www.w3.org/2000/svg">
<g id="vaadin:office" clip-path="url(#clip0_105_174)">
<path id="Vector" d="M26.75 29.0793V8.45435H21.125V2.82935H4.25V29.0793H0.5V30.9543H13.625V25.3293H17.375V30.9543H30.5V29.0793H26.75ZM11.75 21.5793H8V17.8293H11.75V21.5793ZM11.75 15.9543H8V12.2043H11.75V15.9543ZM11.75 10.3293H8V6.57935H11.75V10.3293ZM17.375 21.5793H13.625V17.8293H17.375V21.5793ZM17.375 15.9543H13.625V12.2043H17.375V15.9543ZM17.375 10.3293H13.625V6.57935H17.375V10.3293ZM24.875 21.5793H21.125V17.8293H24.875V21.5793ZM24.875 15.9543H21.125V12.2043H24.875V15.9543Z" fill="#ECEFF1"/>
</g>
<defs>
<clipPath id="clip0_105_174">
<rect width="30" height="30" fill="white" transform="translate(0.5 0.954346)"/>
</clipPath>
</defs>
</svg>
